<svg width="24" height="24" viewBox="0 0 24 24" fill="none" xmlns="http://www.w3.org/2000/svg">
<path fill-rule="evenodd" clip-rule="evenodd" d="M12.4974 4.00003C11.3351 3.99699 10.1884 4.26857 9.15088 4.79263L9.14709 4.79454C7.90143 5.4171 6.8537 6.37416 6.12125 7.55855C5.3888 8.74293 5.00057 10.1078 5.00003 11.5004L5.00002 11.5026C4.99699 12.665 5.26857 13.8116 5.79263 14.8492C5.91284 15.0872 5.93303 15.3633 5.84871 15.6163L4.58117 19.4189L8.3838 18.1513C8.6354 18.0675 8.91 18.087 9.14721 18.2056C9.8334 18.5487 11.3602 19.003 12.4974 19L12.4996 19C13.8922 18.9995 15.2571 18.6113 16.4415 17.8788C17.6259 17.1464 18.583 16.0986 19.2055 14.853L19.2074 14.8492C19.7315 13.8116 20.0031 12.665 20 11.5026L20 11.5V11.0285C19.8926 9.19978 19.1178 7.47373 17.8221 6.17799C16.5263 4.88226 14.8003 4.10746 12.9716 4.00003H12.5L12.4974 4.00003ZM12.5013 2.00003C11.0251 1.99639 9.56887 2.34122 8.25107 3.00647C6.67407 3.79507 5.34764 5.00699 4.42024 6.50661C3.49266 8.00652 3.00091 9.73502 3.00003 11.4986C2.99671 12.8332 3.27825 14.1516 3.82392 15.3661L2.05134 20.6838C1.93157 21.0431 2.02509 21.4393 2.29292 21.7071C2.56075 21.975 2.95692 22.0685 3.31625 21.9487L8.64469 20.1726C9.62853 20.5831 11.1906 21.0031 12.5012 21L12.5 21L12.5026 21L12.5012 21C14.2649 20.9992 15.9935 20.5074 17.4934 19.5798C18.9931 18.6524 20.2051 17.3259 20.9937 15.7488C21.6588 14.4311 22.0036 12.975 22 11.4989V11C22 10.9817 21.9995 10.9633 21.9985 10.9449C21.87 8.6148 20.8864 6.41395 19.2363 4.76378C17.5861 3.11361 15.3853 2.1301 13.0551 2.00155C13.0368 2.00053 13.0184 2.00003 13 2.00003H12.5013Z" fill="#944E0E"/>
</svg>
