<svg width="24" height="24" viewBox="0 0 24 24" fill="none" xmlns="http://www.w3.org/2000/svg">
<path fill-rule="evenodd" clip-rule="evenodd" d="M8 2C8 1.44772 8.44772 1 9 1H15C15.5523 1 16 1.44772 16 2C16 2.55228 15.5523 3 15 3H13V4C13 4.0174 12.9996 4.03469 12.9987 4.05186C17.776 4.55094 21.5 8.5905 21.5 13.5C21.5 18.7468 17.2468 23 12 23C6.75322 23 2.5 18.7468 2.5 13.5C2.5 8.5905 6.22396 4.55094 11.0013 4.05186C11.0004 4.03469 11 4.0174 11 4V3H9C8.44772 3 8 2.55228 8 2ZM12 6C7.85778 6 4.5 9.35779 4.5 13.5C4.5 17.6422 7.85778 21 12 21C16.1422 21 19.5 17.6422 19.5 13.5C19.5 9.35779 16.1422 6 12 6ZM12 8.5C12.5523 8.5 13 8.94772 13 9.5V12.5H16C16.5523 12.5 17 12.9477 17 13.5C17 14.0523 16.5523 14.5 16 14.5H12C11.4477 14.5 11 14.0523 11 13.5V9.5C11 8.94772 11.4477 8.5 12 8.5Z" fill="#944E0E"/>
</svg>
