<svg width="100" height="38" viewBox="0 0 100 38" fill="none" xmlns="http://www.w3.org/2000/svg">
<path d="M17.2045 18.5455H14.2727L14.5682 5.36364L11.0909 18.5455H8.38636L4.90909 5.36364C5.10606 13.803 5.20455 18.197 5.20455 18.5455H2.27273V2.50001H6.63636L9.77273 14.4091L12.8636 2.50001H17.2045V18.5455Z" fill="#212121"/>
<path d="M33.4437 18.5455H30.2392L29.3074 15.4091H23.2846L22.3528 18.5455H19.1255L24.5574 2.50001H27.9664L33.4437 18.5455ZM28.5119 12.7727L26.3074 5.38637L24.0801 12.7727H28.5119Z" fill="#212121"/>
<path d="M50.3411 18.5455H47.4093L47.7047 5.36364L44.2274 18.5455H41.5229L38.0456 5.36364C38.2426 13.803 38.3411 18.197 38.3411 18.5455H35.4093V2.50001H39.7729L42.9093 14.4091L46.0002 2.50001H50.3411V18.5455Z" fill="#212121"/>
<path d="M66.5803 18.5455H63.3757L62.4439 15.4091H56.4212L55.4893 18.5455H52.2621L57.6939 2.50001H61.103L66.5803 18.5455ZM61.6484 12.7727L59.4439 5.38637L57.2166 12.7727H61.6484Z" fill="#212121"/>
<path d="M10.5909 30.7727H8.09091C7.5 30.7727 7.00758 30.9318 6.61364 31.25C6.23485 31.5682 5.95455 31.9773 5.77273 32.4773C5.59091 32.9773 5.43939 33.4924 5.31818 34.0227C5.21212 34.5379 5.09091 35.0606 4.95455 35.5909C4.81818 36.1061 4.65152 36.4849 4.45455 36.7273H1C1.31818 36.4242 1.56818 36 1.75 35.4546C1.94697 34.9091 2.09848 34.3561 2.20455 33.7955C2.31061 33.2197 2.44697 32.6591 2.61364 32.1136C2.7803 31.553 3.06061 31.0606 3.45455 30.6364C3.84848 30.197 4.36364 29.9015 5 29.75C3.06061 29.4015 2.09091 28.0758 2.09091 25.7727C2.09091 24.0455 2.56818 22.7652 3.52273 21.9318C4.49242 21.0985 5.81061 20.6818 7.47727 20.6818H13.5909V36.7273H10.5909V30.7727ZM10.5909 23.2727H7.75C6.00758 23.2727 5.13636 24.0985 5.13636 25.75C5.13636 26.6591 5.35606 27.3106 5.79545 27.7046C6.25 28.0833 6.93182 28.2727 7.84091 28.2727H10.5909V23.2727Z" fill="#212121"/>
<path d="M23.7814 20.6818H36.5087V36.7273H33.5087V23.4091H26.7814V36.7273H23.7814V20.6818Z" fill="#212121"/>
<path d="M39.4116 28.7273C39.4116 26.3333 40.1237 24.3258 41.5479 22.7046C42.9873 21.0833 44.8434 20.2727 47.1161 20.2727C48.6919 20.2727 50.0707 20.6742 51.2525 21.4773C52.4495 22.2652 53.3358 23.2879 53.9116 24.5455C54.5025 25.7879 54.7979 27.1439 54.7979 28.6136C54.7979 29.3864 54.7146 30.1515 54.5479 30.9091C54.3964 31.6667 54.1237 32.4242 53.7298 33.1818C53.3358 33.9394 52.851 34.6061 52.2752 35.1818C51.6995 35.7576 50.957 36.2273 50.0479 36.5909C49.154 36.9546 48.154 37.1364 47.0479 37.1364C44.7601 37.1364 42.9116 36.3182 41.5025 34.6818C40.1085 33.0455 39.4116 31.0606 39.4116 28.7273ZM42.5025 28.6136C42.5025 29.2803 42.5858 29.9318 42.7525 30.5682C42.9192 31.2046 43.1767 31.8182 43.5252 32.4091C43.8737 32.9849 44.3585 33.4546 44.9798 33.8182C45.601 34.1667 46.3207 34.3409 47.1389 34.3409C48.4116 34.3409 49.5025 33.8636 50.4116 32.9091C51.3207 31.9394 51.7752 30.5909 51.7752 28.8636C51.7752 27.8636 51.6085 26.9318 51.2752 26.0682C50.957 25.2045 50.4343 24.4849 49.707 23.9091C48.9798 23.3182 48.1085 23.0227 47.0934 23.0227C45.7449 23.0227 44.6388 23.5227 43.7752 24.5227C42.9267 25.5227 42.5025 26.8864 42.5025 28.6136Z" fill="#212121"/>
<path d="M57.6726 20.6818H64.8544C66.4453 20.6818 67.6499 21.0606 68.468 21.8182C69.3014 22.5606 69.718 23.4924 69.718 24.6136C69.718 25.0985 69.6347 25.5682 69.468 26.0227C69.3014 26.4621 69.0059 26.8712 68.5817 27.25C68.1726 27.6136 67.665 27.8409 67.0589 27.9318C67.9529 28.0985 68.7408 28.5379 69.4226 29.25C70.1196 29.947 70.468 30.9242 70.468 32.1818C70.468 33.4546 70.0362 34.5303 69.1726 35.4091C68.3241 36.2879 66.9529 36.7273 65.059 36.7273H57.6726V20.6818ZM60.6499 23.1364V27.1364H63.6726C64.4756 27.1364 65.165 26.9849 65.7408 26.6818C66.3317 26.3636 66.6271 25.8409 66.6271 25.1136C66.6271 24.3864 66.3392 23.8788 65.7635 23.5909C65.2029 23.2879 64.5362 23.1364 63.7635 23.1364H60.6499ZM60.6499 29.3864V34.1364H64.6044C65.5589 34.1364 66.2635 33.9318 66.718 33.5227C67.1726 33.0985 67.3999 32.5606 67.3999 31.9091C67.3999 30.2273 66.2635 29.3864 63.9908 29.3864H60.6499Z" fill="#212121"/>
<path d="M85.9561 36.7273H82.7516L81.8198 33.5909H75.7971L74.8652 36.7273H71.638L77.0698 20.6818H80.4789L85.9561 36.7273ZM81.0243 30.9546L78.8198 23.5682L76.5925 30.9546H81.0243Z" fill="#212121"/>
<path d="M88.0581 20.6818H94.2853C95.9672 20.6818 97.3384 21.1667 98.399 22.1364C99.4596 23.1061 99.9899 24.4015 99.9899 26.0227C99.9899 27.5833 99.505 28.8485 98.5353 29.8182C97.5808 30.7879 96.1111 31.2727 94.1262 31.2727H91.0581V36.7273H88.0581V20.6818ZM91.0581 23.25V28.8182H93.6944C95.8308 28.8182 96.899 27.8561 96.899 25.9318C96.899 25.4318 96.8156 25.0076 96.649 24.6591C96.4975 24.3106 96.3081 24.0455 96.0808 23.8636C95.8687 23.6818 95.5808 23.5455 95.2172 23.4546C94.8535 23.3485 94.5429 23.2879 94.2853 23.2727C94.0429 23.2576 93.7323 23.25 93.3535 23.25H91.0581Z" fill="#212121"/>
<path fill-rule="evenodd" clip-rule="evenodd" d="M78.9967 3.45356C78.4543 3.45357 77.9283 3.63932 77.5061 3.97994C77.0838 4.32056 76.7909 4.79551 76.6759 5.32583C76.6182 5.59171 76.4523 5.82148 76.2182 5.95981C75.984 6.09813 75.7029 6.13248 75.4423 6.05459C75.1382 5.96367 74.819 5.93458 74.5035 5.96906C74.188 6.00353 73.8827 6.10086 73.6053 6.25531C73.328 6.40975 73.0845 6.61819 72.889 6.86833C72.6934 7.11846 72.55 7.40524 72.467 7.71173C72.384 8.01823 72.3632 8.33825 72.4058 8.65292C72.4484 8.9676 72.5535 9.27055 72.715 9.54392C72.8765 9.81728 73.0911 10.0555 73.346 10.2446C73.601 10.4337 73.8912 10.5698 74.1996 10.6449C74.6371 10.7514 74.945 11.1434 74.945 11.594V13.245L83.0482 13.2389V11.594C83.0482 11.1528 83.3438 10.7663 83.7695 10.6511C84.0706 10.5695 84.3528 10.4294 84.5999 10.2388C84.847 10.0481 85.0541 9.81061 85.2094 9.53985C85.3648 9.2691 85.4653 8.97038 85.5052 8.66076C85.5452 8.35114 85.5238 8.03667 85.4423 7.73532C85.3608 7.43397 85.2208 7.15163 85.0302 6.90442C84.8396 6.65722 84.6023 6.44999 84.3317 6.29457C84.0611 6.13914 83.7625 6.03857 83.4531 5.99859C83.1436 5.95862 82.8293 5.98001 82.5281 6.06156C82.2699 6.1315 81.9942 6.0923 81.7657 5.95315C81.5371 5.81399 81.3756 5.58707 81.319 5.32543C81.0873 4.25493 80.1343 3.45356 78.9967 3.45356ZM78.9966 1.5C78.0084 1.50001 77.0499 1.83849 76.2805 2.45915C75.7595 2.8795 75.3465 3.41215 75.069 4.01237C74.8106 3.99396 74.5504 3.99876 74.2916 4.02704C73.717 4.08983 73.1608 4.26709 72.6557 4.54838C72.1507 4.82967 71.707 5.2093 71.3509 5.66487C70.9949 6.12044 70.7336 6.64274 70.5824 7.20096C70.4313 7.75919 70.3934 8.34204 70.471 8.91514C70.5486 9.48825 70.7401 10.04 71.0342 10.5379C71.3283 11.0358 71.719 11.4697 72.1834 11.8141C72.4358 12.0013 72.7072 12.1599 72.9926 12.2878V17.5687C72.9926 18.1081 73.4296 18.5455 73.9688 18.5455H84.0245C84.5636 18.5455 85.0007 18.1081 85.0007 17.5687V12.2708C85.2806 12.1383 85.546 11.9758 85.7924 11.7857C86.2425 11.4383 86.6198 11.0057 86.9027 10.5124C87.1857 10.0192 87.3689 9.47498 87.4416 8.91093C87.5144 8.34687 87.4755 7.77399 87.327 7.225C87.1785 6.67601 86.9234 6.16166 86.5762 5.71131C86.2291 5.26097 85.7967 4.88345 85.3037 4.60031C84.8107 4.31716 84.2668 4.13395 83.7031 4.06112C83.4476 4.0281 83.1902 4.01806 82.9341 4.03079C82.2511 2.53799 80.7463 1.5 78.9966 1.5ZM83.0482 15.1924L74.945 15.1986V16.5919H83.0482V15.1924Z" fill="#212121"/>
</svg>
