<svg width="24" height="24" viewBox="0 0 24 24" fill="none" xmlns="http://www.w3.org/2000/svg">
<rect width="24" height="24" rx="4" fill="#FFDCAC"/>
<path d="M17.4157 9.0399L16.4798 8.66392C15.9838 8.46393 15.4318 8.79991 15.3838 9.33588L14.7919 15.7996H15.9998L18.0797 10.5998C18.3277 9.98385 18.0317 9.27989 17.4157 9.0399ZM7.52022 8.66392L6.58427 9.0399C5.9683 9.27989 5.67232 9.98385 5.9203 10.5998L8.0002 15.7996H9.20014L8.60817 9.33588C8.59798 9.21188 8.5588 9.09201 8.49379 8.98592C8.42878 8.87984 8.33977 8.79051 8.23391 8.72513C8.12806 8.65974 8.00832 8.62014 7.88436 8.60951C7.76039 8.59888 7.63567 8.61751 7.52022 8.66392ZM13.0879 7H10.9201C10.2081 7 9.65612 7.60797 9.72011 8.31193L10.4001 15.7916H13.5999L14.2799 8.30393C14.3439 7.60797 13.7919 7 13.0879 7ZM4.94435 13.1757L4.14439 14.7196C3.9924 15.0076 3.9604 15.3436 4.0484 15.6716C4.28039 16.4795 5.19234 16.7995 5.9523 16.4235L6.79226 16.0076L5.67232 13.2157C5.64454 13.1439 5.59664 13.0817 5.53436 13.0364C5.47209 12.9912 5.3981 12.9649 5.32125 12.9607C5.2444 12.9565 5.16796 12.9745 5.10111 13.0126C5.03426 13.0508 4.97983 13.1074 4.94435 13.1757ZM19.8556 14.7196L19.0556 13.1757C19.0202 13.108 18.9662 13.0517 18.8999 13.0136C18.8336 12.9754 18.7579 12.957 18.6815 12.9603C18.6051 12.9637 18.5313 12.9887 18.4686 13.0325C18.4059 13.0764 18.3571 13.1371 18.3277 13.2077L17.2077 15.9995L18.0477 16.4155C18.7997 16.7915 19.7196 16.4715 19.9516 15.6636C20.0396 15.3436 20.0076 15.0076 19.8556 14.7196Z" fill="#A15C00"/>
</svg>
