<svg width="24" height="24" viewBox="0 0 24 24" fill="none" xmlns="http://www.w3.org/2000/svg">
<rect width="24" height="24" rx="4" fill="#FADE9B"/>
<path d="M7.06526 13.2706C6.83685 13.2706 6.67562 13.2067 6.58157 13.0788C6.48752 12.9514 6.45393 12.7802 6.48081 12.5653C6.49424 12.4443 6.50445 12.3468 6.51144 12.2726C6.51789 12.199 6.52111 12.1286 6.52111 12.0614C6.52111 11.6583 6.38676 11.1478 6.11804 10.5298C5.84933 9.91171 5.71497 9.44818 5.71497 9.13916C5.71497 9.01823 5.72169 8.89382 5.73512 8.76591C5.74856 8.63854 5.78887 8.5144 5.85605 8.39347C5.90979 8.28599 5.98369 8.19866 6.07773 8.13148C6.17178 8.0643 6.27255 8.03071 6.38004 8.03071C6.59501 8.03071 6.75973 8.0944 6.8742 8.22177C6.98814 8.34967 7.01823 8.52111 6.96449 8.73608C6.93762 8.85701 6.92418 8.99136 6.92418 9.13916C6.92418 9.44818 7.05854 9.91171 7.32726 10.5298C7.59597 11.1478 7.73033 11.6583 7.73033 12.0614C7.73033 12.263 7.71689 12.4309 7.69002 12.5653C7.66315 12.6996 7.62956 12.8138 7.58925 12.9079C7.53551 13.0154 7.46161 13.1027 7.36756 13.1699C7.27351 13.237 7.17274 13.2706 7.06526 13.2706ZM12.3052 13.2706C12.0768 13.2706 11.9155 13.2067 11.8215 13.0788C11.7274 12.9514 11.6939 12.7802 11.7207 12.5653C11.7342 12.4443 11.7444 12.3468 11.7514 12.2726C11.7578 12.199 11.761 12.1286 11.761 12.0614C11.761 11.6583 11.6267 11.1478 11.358 10.5298C11.0893 9.91171 10.9549 9.44818 10.9549 9.13916C10.9549 9.01823 10.9616 8.89382 10.975 8.76591C10.9885 8.63854 11.0288 8.5144 11.096 8.39347C11.1497 8.28599 11.2236 8.19866 11.3177 8.13148C11.4117 8.0643 11.5125 8.03071 11.62 8.03071C11.8349 8.03071 11.9997 8.0944 12.1141 8.22177C12.2281 8.34967 12.2582 8.52111 12.2044 8.73608C12.1775 8.85701 12.1641 8.99136 12.1641 9.13916C12.1641 9.44818 12.2985 9.91171 12.5672 10.5298C12.8359 11.1478 12.9702 11.6583 12.9702 12.0614C12.9702 12.263 12.9568 12.4309 12.9299 12.5653C12.9031 12.6996 12.8695 12.8138 12.8292 12.9079C12.7754 13.0154 12.7015 13.1027 12.6075 13.1699C12.5134 13.237 12.4127 13.2706 12.3052 13.2706ZM9.68522 13.2706C9.45681 13.2706 9.29559 13.2067 9.20154 13.0788C9.10749 12.9514 9.0739 12.7802 9.10077 12.5653C9.1142 12.4443 9.12441 12.3468 9.1314 12.2726C9.13785 12.199 9.14108 12.1286 9.14108 12.0614C9.14108 11.6583 9.00672 11.1478 8.738 10.5298C8.46929 9.91171 8.33493 9.44818 8.33493 9.13916C8.33493 9.01823 8.34165 8.89382 8.35509 8.76591C8.36852 8.63854 8.40883 8.5144 8.47601 8.39347C8.52975 8.28599 8.60365 8.19866 8.6977 8.13148C8.79175 8.0643 8.89251 8.03071 9 8.03071C9.21497 8.03071 9.37969 8.0944 9.49416 8.22177C9.6081 8.34967 9.6382 8.52111 9.58445 8.73608C9.55758 8.85701 9.54415 8.99136 9.54415 9.13916C9.54415 9.44818 9.6785 9.91171 9.94722 10.5298C10.2159 11.1478 10.3503 11.6583 10.3503 12.0614C10.3503 12.263 10.3369 12.4309 10.31 12.5653C10.2831 12.6996 10.2495 12.8138 10.2092 12.9079C10.1555 13.0154 10.0816 13.1027 9.98752 13.1699C9.89347 13.237 9.79271 13.2706 9.68522 13.2706ZM9.94722 20.1228C8.59021 20.1228 7.39766 19.6693 6.36956 18.7621C5.342 17.8554 4.72073 16.7303 4.50576 15.3868C4.47889 15.1449 4.54607 14.9332 4.70729 14.7515C4.86852 14.5704 5.07006 14.4798 5.3119 14.4798H13.7965L14.6833 6.13628C14.7505 5.53167 15.009 5.02434 15.4588 4.61428C15.9092 4.20476 16.4501 4 17.0816 4C17.7534 4 18.3244 4.23512 18.7946 4.70537C19.2649 5.17562 19.5 5.74664 19.5 6.41843L19.4597 6.80134C19.4328 7.02975 19.3355 7.21436 19.1679 7.35516C18.9997 7.49651 18.8013 7.55374 18.5729 7.52687C18.358 7.5 18.1801 7.40246 18.0393 7.23424C17.8979 7.06656 17.8407 6.87524 17.8676 6.66027L17.8877 6.41843C17.8877 6.19002 17.8103 5.99843 17.6555 5.84365C17.5013 5.68941 17.31 5.61228 17.0816 5.61228C16.8666 5.61228 16.6852 5.68269 16.5374 5.82349C16.3896 5.96484 16.3023 6.13628 16.2754 6.33781L15.3484 15.1046C15.2006 16.5288 14.6161 17.7211 13.595 18.6815C12.5739 19.6424 11.358 20.1228 9.94722 20.1228ZM9.94722 18.5106C10.7399 18.5106 11.452 18.2889 12.0835 17.8455C12.715 17.4021 13.1718 16.8177 13.4539 16.0921H6.38004C6.68906 16.8177 7.1628 17.4021 7.80127 17.8455C8.43919 18.2889 9.15451 18.5106 9.94722 18.5106Z" fill="#7A5806"/>
</svg>
