<svg width="24" height="24" viewBox="0 0 24 24" fill="none" xmlns="http://www.w3.org/2000/svg">
<rect width="24" height="24" rx="4" fill="#BFFFBF"/>
<path d="M19.5 11.8182C19.5 11.4417 19.1947 11.1364 18.8182 11.1364H18.756C18.472 9.59664 17.2444 8.38332 15.6972 8.12095C15.3971 6.35159 13.8535 5 12 5C10.1465 5 8.60282 6.35159 8.30277 8.12095C6.75564 8.38332 5.528 9.59664 5.244 11.1364H5.18182C4.80527 11.1364 4.5 11.4417 4.5 11.8182C4.5 14.5121 5.92786 16.8784 8.06623 18.201C7.96814 18.3192 7.90909 18.4708 7.90909 18.6364C7.90909 19.0129 8.21436 19.3182 8.59091 19.3182H15.4091C15.7856 19.3182 16.0909 19.0129 16.0909 18.6364C16.0909 18.4708 16.0319 18.3192 15.9338 18.201C18.0721 16.8784 19.5 14.5121 19.5 11.8182ZM8.93182 9.43182C9.30836 9.43182 9.61364 9.12655 9.61364 8.75C9.61364 7.43414 10.6841 6.36364 12 6.36364C13.3158 6.36364 14.3864 7.43414 14.3864 8.75C14.3864 9.12655 14.6916 9.43182 15.0682 9.43182C16.1471 9.43182 17.0606 10.1518 17.3548 11.1364H14.0455C14.3467 10.9105 14.4078 10.4831 14.1818 10.1819C13.9559 9.88059 13.5285 9.81959 13.2273 10.0455L12.6818 10.4546V8.95455C12.6818 8.578 12.3765 8.27273 12 8.27273C11.6235 8.27273 11.3182 8.578 11.3182 8.95455V10.4546L10.7727 10.0455C10.4715 9.81955 10.0441 9.88064 9.81818 10.1819C9.59223 10.4831 9.65332 10.9105 9.95455 11.1364L9.95459 11.1365H6.64523C6.93932 10.1518 7.85286 9.43182 8.93182 9.43182ZM12 17.9545C8.84686 17.9545 6.24155 15.5639 5.90127 12.5H11.9984C11.9987 12.5 11.9991 12.5001 11.9995 12.5001C11.9997 12.5001 11.9999 12.5 12 12.5C12.0002 12.5 12.0004 12.5001 12.0006 12.5001C12.001 12.5001 12.0014 12.5 12.0017 12.5H18.0988C17.7584 15.5639 15.1531 17.9545 12 17.9545Z" fill="#006600"/>
</svg>
