<svg width="24" height="24" viewBox="0 0 24 24" fill="none" xmlns="http://www.w3.org/2000/svg">
<rect width="24" height="24" rx="4" fill="#FFBFBF"/>
<path fill-rule="evenodd" clip-rule="evenodd" d="M9.60929 5.31272C9.85083 5.64922 9.77384 6.11782 9.43734 6.35935C9.29887 6.45874 9.18668 6.59034 9.11046 6.74279C9.03423 6.89523 8.99627 7.06394 8.99984 7.23435C9.00005 7.24482 9.00005 7.25529 8.99984 7.26576C8.99627 7.43617 9.03423 7.60488 9.11046 7.75733C9.18668 7.90978 9.29887 8.04138 9.43734 8.14076C9.77384 8.3823 9.85083 8.85089 9.60929 9.18739C9.36776 9.5239 8.89917 9.60088 8.56266 9.35935C8.22639 9.11798 7.95393 8.79838 7.76882 8.42815C7.58604 8.0626 7.49384 7.65855 7.49988 7.25006C7.49384 6.84156 7.58604 6.43751 7.76882 6.07196C7.95393 5.70173 8.22639 5.38213 8.56266 5.14076C8.89917 4.89923 9.36776 4.97622 9.60929 5.31272ZM12.6093 5.31272C12.8508 5.64922 12.7738 6.11782 12.4373 6.35935C12.2989 6.45874 12.1867 6.59034 12.1105 6.74279C12.0342 6.89523 11.9963 7.06395 11.9998 7.23435C12.0001 7.24482 12.0001 7.25529 11.9998 7.26576C11.9963 7.43617 12.0342 7.60488 12.1105 7.75733C12.1867 7.90978 12.2989 8.04138 12.4373 8.14076C12.7738 8.3823 12.8508 8.85089 12.6093 9.18739C12.3678 9.5239 11.8992 9.60088 11.5627 9.35935C11.2264 9.11798 10.9539 8.79838 10.7688 8.42815C10.586 8.0626 10.4938 7.65855 10.4999 7.25006C10.4938 6.84156 10.586 6.43751 10.7688 6.07196C10.9539 5.70173 11.2264 5.38213 11.5627 5.14076C11.8992 4.89923 12.3678 4.97622 12.6093 5.31272ZM15.6093 5.31272C15.8508 5.64922 15.7738 6.11782 15.4373 6.35935C15.2989 6.45874 15.1867 6.59034 15.1105 6.74279C15.0342 6.89523 14.9963 7.06395 14.9998 7.23435C15.0001 7.24482 15.0001 7.25529 14.9998 7.26576C14.9963 7.43617 15.0342 7.60488 15.1105 7.75733C15.1867 7.90978 15.2989 8.04138 15.4373 8.14076C15.7738 8.3823 15.8508 8.85089 15.6093 9.18739C15.3678 9.5239 14.8992 9.60088 14.5627 9.35935C14.2264 9.11798 13.9539 8.79838 13.7688 8.42815C13.586 8.0626 13.4938 7.65855 13.4999 7.25006C13.4938 6.84156 13.586 6.43751 13.7688 6.07196C13.9539 5.70173 14.2264 5.38213 14.5627 5.14076C14.8992 4.89923 15.3678 4.97622 15.6093 5.31272ZM4.93934 10.6894C5.22064 10.4081 5.60217 10.2501 6 10.2501H18C18.3978 10.2501 18.7794 10.4081 19.0607 10.6894C19.342 10.9707 19.5 11.3522 19.5 11.7501V12.1251C19.5 12.5671 19.3283 13.0873 19.1275 13.558C18.9153 14.0552 18.6258 14.5976 18.3056 15.1172C17.985 15.6374 17.6246 16.149 17.2651 16.5822C17.0238 16.873 16.7637 17.152 16.5 17.3752V17.7501C16.5 18.1479 16.342 18.5294 16.0607 18.8107C15.7794 19.092 15.3978 19.2501 15 19.2501H9C8.60218 19.2501 8.22065 19.092 7.93934 18.8107C7.65804 18.5294 7.5 18.1479 7.5 17.7501V17.381C6.82246 16.8273 6.14732 15.9259 5.63365 15.0759C5.32156 14.5595 5.04614 14.0241 4.84619 13.533C4.65549 13.0647 4.5 12.5573 4.5 12.1251V11.7501C4.5 11.3522 4.65804 10.9707 4.93934 10.6894ZM6 11.7501V12.1251C6 12.2553 6.06135 12.5398 6.23546 12.9674C6.40031 13.3723 6.63766 13.8372 6.91742 14.3001C7.49817 15.261 8.17276 16.0675 8.6474 16.364C8.86674 16.501 9 16.7414 9 17.0001V17.7501H15V17.0001C15 16.7415 15.1332 16.5011 15.3525 16.3641C15.5274 16.2547 15.7926 16.0077 16.1108 15.6243C16.4181 15.254 16.7383 14.8013 17.0286 14.3302C17.3193 13.8586 17.5713 13.383 17.7478 12.9692C17.9357 12.529 18 12.2455 18 12.1251V11.7501H6Z" fill="#DF0000"/>
</svg>
