<svg width="24" height="24" viewBox="0 0 24 24" fill="none" xmlns="http://www.w3.org/2000/svg">
<path fill-rule="evenodd" clip-rule="evenodd" d="M14.4629 2.49507C15.2518 2.16823 16.0972 2 16.9511 2C17.8049 2 18.6504 2.16823 19.4392 2.49507C20.2279 2.82186 20.9445 3.30081 21.548 3.90455C22.1518 4.5081 22.6311 5.22501 22.9578 6.01368C23.2847 6.80249 23.4529 7.64797 23.4529 8.50183C23.4529 9.35568 23.2847 10.2012 22.9578 10.99C22.631 11.7787 22.152 12.4953 21.5482 13.0989C21.5481 13.099 21.5483 13.0989 21.5482 13.0989L12.7082 21.9389C12.3177 22.3295 11.6845 22.3295 11.294 21.9389L2.45399 13.0989C1.23476 11.8797 0.549805 10.2261 0.549805 8.50183C0.549805 6.77758 1.23476 5.12395 2.45399 3.90472C3.67322 2.68549 5.32685 2.00053 7.0511 2.00053C8.77535 2.00053 10.429 2.68549 11.6482 3.90472L12.0011 4.25761L12.3538 3.90488C12.3539 3.90483 12.3538 3.90494 12.3538 3.90488C12.9574 3.30106 13.6742 2.82189 14.4629 2.49507ZM16.9511 4C16.36 4 15.7746 4.11647 15.2285 4.34274C14.6824 4.56902 14.1863 4.90068 13.7684 5.31877L12.7082 6.37893C12.3177 6.76946 11.6845 6.76946 11.294 6.37893L10.234 5.31893C9.38983 4.47478 8.24491 4.00053 7.0511 4.00053C5.85728 4.00053 4.71236 4.47478 3.8682 5.31893C3.02405 6.16309 2.5498 7.30801 2.5498 8.50183C2.5498 9.69564 3.02405 10.8406 3.8682 11.6847L12.0011 19.8176L20.134 11.6847C20.5521 11.2668 20.8839 10.7705 21.1102 10.2244C21.3365 9.67828 21.4529 9.09295 21.4529 8.50183C21.4529 7.9107 21.3365 7.32537 21.1102 6.77926C20.8839 6.23316 20.5522 5.73699 20.1342 5.3191C19.7163 4.90101 19.2198 4.56902 18.6737 4.34274C18.1276 4.11647 17.5422 4 16.9511 4Z" fill="#944E0E"/>
</svg>
