<?xml version="1.0" encoding="utf-8"?><svg viewBox="0 0 24 24" xmlns="http://www.w3.org/2000/svg" xmlns:xlink="http://www.w3.org/1999/xlink"><style>:root>svg{display:none}:root>svg:target{display:block}</style><svg viewBox="0 0 24 24" id="bookmark" xmlns="http://www.w3.org/2000/svg"><path fill-rule="evenodd" clip-rule="evenodd" d="M7 4a1 1 0 00-1 1v14.057l5.419-3.87a1 1 0 011.162 0L18 19.056V5a1 1 0 00-1-1H7zM4.879 2.879A3 3 0 017 2h10a3 3 0 013 3v16a1 1 0 01-1.581.814L12 17.229l-6.419 4.585A1 1 0 014 21V5a3 3 0 01.879-2.121z"/></svg><svg viewBox="0 0 24 24" id="bookmark-filled" xmlns="http://www.w3.org/2000/svg"><path d="M19 21l-7-5-7 5V5a2 2 0 012-2h10a2 2 0 012 2v16z"/><path fill-rule="evenodd" clip-rule="evenodd" d="M7 4a1 1 0 00-1 1v14.057l5.419-3.87a1 1 0 011.162 0L18 19.056V5a1 1 0 00-1-1H7zM4.879 2.879A3 3 0 017 2h10a3 3 0 013 3v16a1 1 0 01-1.581.814L12 17.229l-6.419 4.585A1 1 0 014 21V5a3 3 0 01.879-2.121z"/></svg><svg viewBox="0 0 24 24" id="chevron-down" xmlns="http://www.w3.org/2000/svg"><path fill-rule="evenodd" clip-rule="evenodd" d="M5.293 8.293a1 1 0 011.414 0L12 13.586l5.293-5.293a1 1 0 111.414 1.414l-6 6a1 1 0 01-1.414 0l-6-6a1 1 0 010-1.414z"/></svg><svg viewBox="0 0 24 24" id="circle" xmlns="http://www.w3.org/2000/svg"><path fill-rule="evenodd" clip-rule="evenodd" d="M12.497 4a7.38 7.38 0 00-3.346.793l-.004.002A7.5 7.5 0 005 11.5v.003a7.38 7.38 0 00.793 3.346 1 1 0 01.056.767L4.58 19.42l3.803-1.268a1 1 0 01.763.055c.686.343 2.213.797 3.35.794h.003a7.5 7.5 0 006.706-4.147l.001-.004A7.379 7.379 0 0020 11.503v-.475A7.48 7.48 0 0012.972 4h-.475zm.004-2a9.38 9.38 0 00-4.25 1.006A9.5 9.5 0 003 11.5a9.38 9.38 0 00.824 3.867L2.05 20.684a1 1 0 001.265 1.265l5.329-1.776c.984.41 2.546.83 3.856.827h.003-.002a9.5 9.5 0 008.493-5.251A9.381 9.381 0 0022 11.499V11c0-.018 0-.037-.002-.055A9.48 9.48 0 0013 2h-.499z"/></svg><svg viewBox="0 0 24 24" id="circle-plus" xmlns="http://www.w3.org/2000/svg"><path fill-rule="evenodd" clip-rule="evenodd" d="M12 3a9 9 0 100 18 9 9 0 000-18zM1 12C1 5.925 5.925 1 12 1s11 4.925 11 11-4.925 11-11 11S1 18.075 1 12zm11-5a1 1 0 011 1v3h3a1 1 0 110 2h-3v3a1 1 0 11-2 0v-3H8a1 1 0 110-2h3V8a1 1 0 011-1z"/></svg><svg viewBox="0 0 24 24" id="clock" xmlns="http://www.w3.org/2000/svg"><path fill-rule="evenodd" clip-rule="evenodd" d="M12 3a9 9 0 100 18 9 9 0 000-18zM1 12C1 5.925 5.925 1 12 1s11 4.925 11 11-4.925 11-11 11S1 18.075 1 12zm11-7a1 1 0 011 1v5.382l3.447 1.724a1 1 0 11-.894 1.788l-4-2A1 1 0 0111 12V6a1 1 0 011-1z"/></svg><svg viewBox="0 0 24 24" id="cross" xmlns="http://www.w3.org/2000/svg"><path fill-rule="evenodd" clip-rule="evenodd" d="M5.293 5.293a1 1 0 011.414 0L12 10.586l5.293-5.293a1 1 0 111.414 1.414L13.414 12l5.293 5.293a1 1 0 01-1.414 1.414L12 13.414l-5.293 5.293a1 1 0 01-1.414-1.414L10.586 12 5.293 6.707a1 1 0 010-1.414z"/></svg><svg viewBox="0 0 24 24" id="delete" xmlns="http://www.w3.org/2000/svg"><path fill-rule="evenodd" clip-rule="evenodd" d="M10 3a1 1 0 00-1 1v1h6V4a1 1 0 00-1-1h-4zm7 2V4a3 3 0 00-3-3h-4a3 3 0 00-3 3v1H3a1 1 0 000 2h1v13a3 3 0 003 3h10a3 3 0 003-3V7h1a1 1 0 100-2h-4zM6 7v13a1 1 0 001 1h10a1 1 0 001-1V7H6zm4 3a1 1 0 011 1v6a1 1 0 11-2 0v-6a1 1 0 011-1zm3 1a1 1 0 112 0v6a1 1 0 11-2 0v-6z"/></svg><svg viewBox="0 0 24 24" id="heart" xmlns="http://www.w3.org/2000/svg"><path fill-rule="evenodd" clip-rule="evenodd" d="M14.463 2.495A6.5 6.5 0 0121.548 13.1l-8.84 8.84a1 1 0 01-1.414 0l-8.84-8.84a6.501 6.501 0 119.194-9.194l.353.353.353-.353a6.502 6.502 0 012.109-1.41zM16.95 4a4.5 4.5 0 00-3.183 1.319l-1.06 1.06a1 1 0 01-1.414 0l-1.06-1.06a4.501 4.501 0 00-6.366 6.366L12 19.818l8.133-8.133A4.501 4.501 0 0016.951 4z"/></svg><svg viewBox="0 0 24 24" id="heart-filled" xmlns="http://www.w3.org/2000/svg"><path d="M20.841 4.612a5.5 5.5 0 00-7.78 0l-1.06 1.06-1.06-1.06a5.501 5.501 0 10-7.78 7.78l8.84 8.84 8.84-8.84a5.5 5.5 0 000-7.78z"/><path fill-rule="evenodd" clip-rule="evenodd" d="M14.463 2.495A6.5 6.5 0 0121.548 13.1l-8.84 8.84a1 1 0 01-1.414 0l-8.84-8.84a6.501 6.501 0 119.194-9.194l.353.353.353-.353a6.502 6.502 0 012.109-1.41zM16.95 4a4.5 4.5 0 00-3.183 1.319l-1.06 1.06a1 1 0 01-1.414 0l-1.06-1.06a4.501 4.501 0 00-6.366 6.366L12 19.818l8.133-8.133A4.501 4.501 0 0016.951 4z"/></svg><svg viewBox="0 0 24 24" id="image" xmlns="http://www.w3.org/2000/svg"><path fill-rule="evenodd" clip-rule="evenodd" d="M5 4a1 1 0 00-1 1v14a1 1 0 00.65.937L15.292 9.293a1 1 0 011.414 0L20 12.586V5a1 1 0 00-1-1H5zm17 10.999V5a3 3 0 00-3-3H5a3 3 0 00-3 3v14a3 3 0 003 3h14a3 3 0 003-3v-4.001zm-2 .415l-4-4L7.414 20H19a1 1 0 001-1v-3.586zM8.5 8a.5.5 0 100 1 .5.5 0 000-1zM6 8.5a2.5 2.5 0 115 0 2.5 2.5 0 01-5 0z"/></svg><svg viewBox="0 0 24 24" id="loader" xmlns="http://www.w3.org/2000/svg"><path fill-rule="evenodd" clip-rule="evenodd" d="M12 1a1 1 0 011 1v4a1 1 0 11-2 0V2a1 1 0 011-1zM4.223 4.223a1 1 0 011.414 0l2.83 2.83a1 1 0 01-1.414 1.414l-2.83-2.83a1 1 0 010-1.414zm15.554 0a1 1 0 010 1.414l-2.83 2.83a1 1 0 11-1.414-1.414l2.83-2.83a1 1 0 011.414 0zM1 12a1 1 0 011-1h4a1 1 0 110 2H2a1 1 0 01-1-1zm16 0a1 1 0 011-1h4a1 1 0 110 2h-4a1 1 0 01-1-1zm-8.533 3.533a1 1 0 010 1.414l-2.83 2.83a1 1 0 01-1.414-1.414l2.83-2.83a1 1 0 011.414 0zm7.066 0a1 1 0 011.414 0l2.83 2.83a1 1 0 01-1.414 1.414l-2.83-2.83a1 1 0 010-1.414zM12 17a1 1 0 011 1v4a1 1 0 11-2 0v-4a1 1 0 011-1z"/></svg><svg viewBox="0 0 24 24" id="log-out" xmlns="http://www.w3.org/2000/svg"><path fill-rule="evenodd" clip-rule="evenodd" d="M5 4a1 1 0 00-1 1v14a1 1 0 001 1h4a1 1 0 110 2H5a3 3 0 01-3-3V5a3 3 0 013-3h4a1 1 0 010 2H5zm10.293 2.293a1 1 0 011.414 0l5 5a1 1 0 010 1.414l-5 5a1 1 0 01-1.414-1.414L18.586 13H9a1 1 0 110-2h9.586l-3.293-3.293a1 1 0 010-1.414z"/></svg><svg viewBox="0 0 24 24" id="minus" xmlns="http://www.w3.org/2000/svg"><path fill-rule="evenodd" clip-rule="evenodd" d="M4 12a1 1 0 011-1h14a1 1 0 110 2H5a1 1 0 01-1-1z"/></svg><svg viewBox="0 0 24 24" id="plus" xmlns="http://www.w3.org/2000/svg"><path fill-rule="evenodd" clip-rule="evenodd" d="M12 4a1 1 0 011 1v6h6a1 1 0 110 2h-6v6a1 1 0 11-2 0v-6H5a1 1 0 110-2h6V5a1 1 0 011-1z"/></svg><svg viewBox="0 0 24 24" id="settings" xmlns="http://www.w3.org/2000/svg"><g clip-path="url(#pa)"><path fill-rule="evenodd" clip-rule="evenodd" d="M12 2a1 1 0 00-1 1v.174a2.65 2.65 0 01-1.606 2.425 1 1 0 01-.264.073 2.65 2.65 0 01-2.73-.607l-.007-.008-.06-.06a1.003 1.003 0 00-1.415 0h-.001a1 1 0 000 1.415l.068.069a2.65 2.65 0 01.542 2.894 2.65 2.65 0 01-2.414 1.705H3a1 1 0 000 2h.174a2.65 2.65 0 012.423 1.601 2.65 2.65 0 01-.532 2.918l-.008.008-.06.06a1.003 1.003 0 00-.217 1.09 1 1 0 00.217.325v.001a.999.999 0 001.415 0l.069-.068a2.65 2.65 0 012.894-.543 2.65 2.65 0 011.705 2.415V21a1 1 0 002 0v-.174a2.65 2.65 0 011.601-2.423 2.65 2.65 0 012.918.532l.008.008.06.06a1.002 1.002 0 001.415 0h.001a1 1 0 000-1.416l-.068-.068a2.65 2.65 0 01-.532-2.918A2.65 2.65 0 0120.906 13H21a1 1 0 000-2h-.174a2.65 2.65 0 01-2.425-1.606.999.999 0 01-.073-.264 2.65 2.65 0 01.607-2.73l.008-.007.06-.06a1.002 1.002 0 000-1.415v-.001a1 1 0 00-1.416 0l-.068.068a2.65 2.65 0 01-2.918.532A2.65 2.65 0 0113 3.094V3a1 1 0 00-1-1zM9.879.879A3 3 0 0115 3v.087a.65.65 0 00.394.594l.01.004a.65.65 0 00.714-.127l.055-.055a3 3 0 014.895 3.27 2.998 2.998 0 01-.65.974c-.001 0 0 0 0 0l-.056.055a.65.65 0 00-.127.714c.028.064.05.13.064.2a.65.65 0 00.534.284H21a3 3 0 110 6h-.087a.65.65 0 00-.594.394l-.004.01a.65.65 0 00.127.714l.055.055a3.002 3.002 0 010 4.245l-.707-.708.707.707a3 3 0 01-4.244 0l-.055-.055a.65.65 0 00-.714-.127l-.01.004a.649.649 0 00-.394.593V21a3 3 0 01-6 0v-.076a.65.65 0 00-.425-.585.955.955 0 01-.059-.024.65.65 0 00-.714.127l-.054.055a3.002 3.002 0 11-4.245-4.244l.055-.055a.65.65 0 00.127-.714l-.004-.01a.649.649 0 00-.594-.394H3a3 3 0 010-6h.076a.65.65 0 00.585-.425l.024-.059a.65.65 0 00-.127-.714l-.055-.054a3 3 0 114.244-4.245l.055.055a.65.65 0 00.714.127 1 1 0 01.2-.064A.65.65 0 009 3.167V3A3 3 0 019.879.879zM12 10a2 2 0 100 4 2 2 0 000-4zm-4 2a4 4 0 118 0 4 4 0 01-8 0z"/></g><defs><clipPath id="pa"><path d="M0 0h24v24H0z"/></clipPath></defs></svg><svg viewBox="0 0 24 24" id="stopwatch" xmlns="http://www.w3.org/2000/svg"><path fill-rule="evenodd" clip-rule="evenodd" d="M8 2a1 1 0 011-1h6a1 1 0 110 2h-2v1a.99.99 0 01-.001.052A9.5 9.5 0 0121.5 13.5 9.5 9.5 0 0112 23a9.5 9.5 0 01-9.5-9.5 9.5 9.5 0 018.501-9.448A.99.99 0 0111 4V3H9a1 1 0 01-1-1zm4 4a7.5 7.5 0 100 15 7.5 7.5 0 000-15zm0 2.5a1 1 0 011 1v3h3a1 1 0 110 2h-4a1 1 0 01-1-1v-4a1 1 0 011-1z"/></svg><svg viewBox="0 0 24 24" id="user" xmlns="http://www.w3.org/2000/svg"><path fill-rule="evenodd" clip-rule="evenodd" d="M12 4a3 3 0 100 6 3 3 0 000-6zM7 7a5 5 0 1110 0A5 5 0 017 7zm-2.536 8.464A5 5 0 018 14h8a5 5 0 015 5v2a1 1 0 11-2 0v-2a3 3 0 00-3-3H8a3 3 0 00-3 3v2a1 1 0 11-2 0v-2a5 5 0 011.464-3.536z"/></svg><svg viewBox="0 0 24 24" id="user_plus" xmlns="http://www.w3.org/2000/svg"><path fill-rule="evenodd" clip-rule="evenodd" d="M8.5 4a3 3 0 100 6 3 3 0 000-6zm-5 3a5 5 0 1110 0 5 5 0 01-10 0zM20 7a1 1 0 011 1v2h2a1 1 0 110 2h-2v2a1 1 0 11-2 0v-2h-2a1 1 0 110-2h2V8a1 1 0 011-1zM1.464 15.464A5 5 0 015 14h7a5 5 0 015 5v2a1 1 0 11-2 0v-2a3 3 0 00-3-3H5a3 3 0 00-3 3v2a1 1 0 11-2 0v-2a5 5 0 011.464-3.536z"/></svg><svg viewBox="0 0 24 24" id="users" xmlns="http://www.w3.org/2000/svg"><path fill-rule="evenodd" clip-rule="evenodd" d="M9 4a3 3 0 100 6 3 3 0 000-6zM4 7a5 5 0 1110 0A5 5 0 014 7zm11.031-4.118a1 1 0 011.217-.72 5 5 0 010 9.687 1 1 0 01-.496-1.938 3 3 0 000-5.812 1 1 0 01-.72-1.217zM1.464 15.464A5 5 0 015 14h8a5 5 0 015 5v2a1 1 0 11-2 0v-2a3 3 0 00-3-3H5a3 3 0 00-3 3v2a1 1 0 11-2 0v-2a5 5 0 011.464-3.536zm17.568-.584a1 1 0 011.218-.718A5 5 0 0124 18.999V21a1 1 0 11-2 0v-2a3 3 0 00-2.25-2.902 1 1 0 01-.718-1.218z"/></svg></svg>